<svg xmlns="http://www.w3.org/2000/svg" viewBox="0 0 100 100">
  <defs>
    <linearGradient id="g" x1="0%" y1="0%" x2="100%" y2="100%">
      <stop offset="0%" stop-color="#16a34a"/>
      <stop offset="100%" stop-color="#14532d"/>
    </linearGradient>
  </defs>
  <circle cx="50" cy="50" r="50" fill="url(#g)"/>
  <!-- Leaf / plant growing -->
  <path d="M50 72 C50 72 50 50 50 44" stroke="#bbf7d0" stroke-width="3" stroke-linecap="round"/>
  <!-- Left leaf -->
  <path d="M50 55 C50 55 35 50 30 38 C30 38 45 36 50 50Z" fill="#bbf7d0" opacity="0.9"/>
  <!-- Right leaf -->
  <path d="M50 48 C50 48 65 42 70 30 C70 30 55 28 50 44Z" fill="#4ade80" opacity="0.95"/>
  <!-- Top sprout -->
  <path d="M50 44 C50 44 47 36 42 32 C46 31 52 36 50 44Z" fill="white" opacity="0.8"/>
  <!-- Ground/roots -->
  <path d="M35 72 Q50 68 65 72" stroke="#bbf7d0" stroke-width="2.5" stroke-linecap="round" fill="none" opacity="0.7"/>
  <!-- EFERT text -->
  <text x="50" y="88" font-family="Arial Black, sans-serif" font-size="9.5" font-weight="900" fill="white" text-anchor="middle" letter-spacing="0.5">EFERT</text>
</svg>
