<svg xmlns="http://www.w3.org/2000/svg" viewBox="0 0 100 100">
  <defs>
    <linearGradient id="g" x1="0%" y1="0%" x2="100%" y2="100%">
      <stop offset="0%" stop-color="#1e3a8a"/>
      <stop offset="100%" stop-color="#0f1f5c"/>
    </linearGradient>
  </defs>
  <circle cx="50" cy="50" r="50" fill="url(#g)"/>
  <!-- Flame large -->
  <path d="M50 16 C50 16 38 28 40 38 C36 32 36 24 36 24 C31 33 33 46 40 51 C37 48 36 42 36 42 C39 51 50 58 50 58 C50 58 61 51 64 42 C64 42 63 48 60 51 C67 46 69 33 64 24 C64 24 64 32 60 38 C62 28 50 16 50 16Z" fill="#f59e0b"/>
  <!-- Inner flame -->
  <path d="M50 28 C50 28 44 35 45 41 C43 38 43 33 43 33 C40 38 41 45 45 48 C44 46 44 43 44 43 C46 47 50 50 50 50 C50 50 54 47 56 43 C56 43 56 46 55 48 C59 45 60 38 57 33 C57 33 57 38 55 41 C56 35 50 28 50 28Z" fill="#fcd34d"/>
  <!-- MARI text -->
  <text x="50" y="73" font-family="Arial Black, sans-serif" font-size="11" font-weight="900" fill="white" text-anchor="middle" letter-spacing="0.5">MARI</text>
  <!-- Subtitle -->
  <text x="50" y="84" font-family="Arial, sans-serif" font-size="6.5" fill="#93c5fd" text-anchor="middle" letter-spacing="1">PETROLEUM</text>
</svg>
